<svg xmlns="http://www.w3.org/2000/svg" xmlns:xlink="http://www.w3.org/1999/xlink" width="500" zoomAndPan="magnify" viewBox="0 0 375 374.999991" height="500" preserveAspectRatio="xMidYMid meet" version="1.0"><defs><clipPath id="dab130d6d2"><path d="M 1 16.796875 L 302 16.796875 L 302 358.046875 L 1 358.046875 Z M 1 16.796875 " clip-rule="nonzero"/></clipPath></defs><g clip-path="url(#dab130d6d2)"><path fill="#000000" d="M 86.617188 269.628906 C 86.601562 269.609375 86.585938 269.585938 86.570312 269.566406 C 81.976562 263.167969 81.945312 254.546875 81.738281 246.996094 C 81.507812 238.742188 81.277344 229.046875 83.300781 220.394531 C 84.125 216.875 85.320312 213.527344 87.039062 210.523438 C 87.207031 210.226562 89.191406 207.035156 89.945312 205.925781 L 194.15625 205.550781 L 194.15625 171.238281 L 227.570312 171.238281 L 227.570312 205.550781 L 263.753906 205.550781 L 263.753906 170.578125 L 229.316406 170.578125 L 229.316406 133.175781 L 276.59375 133.175781 L 276.59375 16.816406 L 166.386719 16.816406 L 166.386719 122.515625 L 95.273438 122.515625 C 95.273438 122.515625 67.210938 122.867188 41.265625 141.414062 C 41.261719 141.402344 41.253906 141.394531 41.246094 141.386719 C 41.109375 141.492188 40.976562 141.601562 40.84375 141.710938 C 40.816406 141.730469 40.789062 141.746094 40.761719 141.765625 L 40.765625 141.769531 C 34.597656 146.582031 29.050781 152.140625 23.964844 158.089844 C 21.773438 160.597656 19.789062 163.269531 17.898438 166 C 13.886719 172.304688 10.230469 178.90625 7.742188 185.972656 C 6.195312 189.96875 5.070312 194.085938 4.167969 198.261719 C 0.03125 211.933594 1.78125 226.304688 1.4375 240.359375 C 1.617188 249.171875 0.996094 258.167969 1.660156 266.980469 C 1.660156 266.980469 1.679688 267.140625 1.699219 267.460938 C 1.941406 269.671875 3.125 279.40625 7.460938 291.53125 C 7.820312 292.554688 8.222656 293.621094 8.644531 294.683594 C 9.269531 296.269531 9.949219 297.898438 10.691406 299.542969 C 11.71875 301.851562 12.859375 304.179688 14.125 306.53125 C 15.351562 308.976562 16.734375 311.328125 18.324219 313.554688 C 21.917969 319.035156 26.292969 324.398438 31.574219 329.292969 C 32.214844 329.917969 32.878906 330.5 33.558594 331.101562 C 33.902344 331.382812 34.242188 331.683594 34.605469 331.984375 C 34.855469 332.191406 35.117188 332.398438 35.371094 332.605469 L 35.371094 332.609375 C 58.953125 357.402344 89.320312 358.105469 89.320312 358.105469 L 301.367188 358.105469 L 301.367188 325.460938 L 261.410156 325.460938 L 261.410156 269.628906 L 86.617188 269.628906 " fill-opacity="1" fill-rule="nonzero"/></g><path fill="#000000" d="M 271.875 186.535156 L 327.476562 186.535156 L 327.476562 242.136719 L 271.875 242.136719 Z M 271.875 186.535156 " fill-opacity="1" fill-rule="nonzero"/><path fill="#000000" d="M 294.40625 265.355469 L 332.8125 265.355469 L 332.8125 303.757812 L 294.40625 303.757812 Z M 294.40625 265.355469 " fill-opacity="1" fill-rule="nonzero"/><path fill="#000000" d="M 349.710938 225.050781 L 375 225.050781 L 375 250.339844 L 349.710938 250.339844 Z M 349.710938 225.050781 " fill-opacity="1" fill-rule="nonzero"/></svg>